<svg width="1728" height="861" viewBox="0 0 1728 861" fill="none" xmlns="http://www.w3.org/2000/svg">
<mask id="mask0_6_192" style="mask-type:alpha" maskUnits="userSpaceOnUse" x="0" y="0" width="1728" height="861">
<rect width="1728" height="861" fill="#1C1F5E"/>
</mask>
<g mask="url(#mask0_6_192)">
<g opacity="0.15">
<path fill-rule="evenodd" clip-rule="evenodd" d="M1151.21 -71.02C1151.21 -77.6364 1156.58 -83 1163.19 -83C1169.81 -83 1175.17 -77.6364 1175.17 -71.0201V79.5847C1175.17 86.2011 1169.81 91.5647 1163.19 91.5647C1156.58 91.5647 1151.21 86.2011 1151.21 79.5847V-71.02ZM1211.11 75.5914C1204.5 75.5914 1199.13 80.955 1199.13 87.5714V238.176C1199.13 244.793 1204.5 250.156 1211.11 250.156C1217.73 250.156 1223.09 244.792 1223.09 238.176V87.5714C1223.09 80.955 1217.73 75.5914 1211.11 75.5914ZM1120.98 80.1552C1114.36 80.1552 1109 85.5188 1109 92.1352V242.74C1109 249.356 1114.36 254.72 1120.98 254.72C1127.6 254.72 1132.96 249.356 1132.96 242.74V92.1351C1132.96 85.5188 1127.6 80.1552 1120.98 80.1552ZM842.588 332.304C835.972 332.304 830.608 337.668 830.608 344.284V494.889C830.608 501.505 835.972 506.869 842.588 506.869C849.205 506.869 854.568 501.505 854.568 494.889V344.284C854.568 337.668 849.205 332.304 842.588 332.304ZM1151.21 200.525C1151.21 193.909 1156.58 188.545 1163.19 188.545C1169.81 188.545 1175.17 193.909 1175.17 200.525V351.13C1175.17 357.746 1169.81 363.11 1163.19 363.11C1156.58 363.11 1151.21 357.746 1151.21 351.13V200.525ZM1120.98 306.062C1114.36 306.062 1109 311.426 1109 318.042V468.647C1109 475.264 1114.36 480.627 1120.98 480.627C1127.6 480.627 1132.96 475.263 1132.96 468.647V318.042C1132.96 311.426 1127.6 306.062 1120.98 306.062ZM1429.6 643.212C1429.6 636.596 1434.97 631.232 1441.58 631.232C1448.2 631.232 1453.56 636.596 1453.56 643.212V793.817C1453.56 800.433 1448.2 805.797 1441.58 805.797C1434.97 805.797 1429.6 800.433 1429.6 793.817V643.212ZM1715.41 741.904C1708.8 741.904 1703.43 747.267 1703.43 753.884V931.871C1703.43 938.487 1708.8 943.851 1715.41 943.851C1722.03 943.851 1727.39 938.487 1727.39 931.871V753.884C1727.39 747.267 1722.03 741.904 1715.41 741.904ZM1059.94 492.607C1059.94 485.991 1065.3 480.627 1071.92 480.627C1078.53 480.627 1083.9 485.991 1083.9 492.607V643.212C1083.9 649.828 1078.53 655.192 1071.92 655.192C1065.3 655.192 1059.94 649.828 1059.94 643.212V492.607ZM1163.19 687.138C1156.58 687.138 1151.21 692.502 1151.21 699.118V849.723C1151.21 856.339 1156.58 861.703 1163.19 861.703C1169.81 861.703 1175.17 856.339 1175.17 849.723V699.118C1175.17 692.502 1169.81 687.138 1163.19 687.138ZM1102.15 985.496C1102.15 978.879 1107.52 973.516 1114.13 973.516C1120.75 973.516 1126.11 978.879 1126.11 985.496V1136.1C1126.11 1142.72 1120.75 1148.08 1114.13 1148.08C1107.52 1148.08 1102.15 1142.72 1102.15 1136.1V985.496ZM933.864 1021.44C927.248 1021.44 921.884 1026.8 921.884 1033.42V1184.02C921.884 1190.64 927.248 1196 933.864 1196C940.48 1196 945.844 1190.64 945.844 1184.02V1033.42C945.844 1026.8 940.48 1021.44 933.864 1021.44ZM969.804 735.628C969.804 729.012 975.167 723.648 981.784 723.648C988.4 723.648 993.764 729.012 993.764 735.628V886.233C993.764 892.85 988.4 898.213 981.784 898.213C975.167 898.213 969.804 892.85 969.804 886.233V735.628ZM981.784 992.912C975.167 992.912 969.804 998.275 969.804 1004.89V1155.5C969.804 1162.11 975.167 1167.48 981.784 1167.48C988.4 1167.48 993.764 1162.11 993.764 1155.5V1004.89C993.764 998.275 988.4 992.912 981.784 992.912ZM786.112 345.425C786.112 338.809 791.475 333.445 798.091 333.445C804.708 333.445 810.071 338.809 810.071 345.425V594.151C810.071 600.768 804.708 606.131 798.091 606.131C791.475 606.131 786.112 600.768 786.112 594.151V345.425ZM1027.42 655.192C1020.81 655.192 1015.44 660.555 1015.44 667.172V915.898C1015.44 922.514 1020.81 927.878 1027.42 927.878C1034.04 927.878 1039.4 922.514 1039.4 915.898V667.172C1039.4 660.555 1034.04 655.192 1027.42 655.192ZM1016.58 103.545C1016.58 96.9283 1021.95 91.5647 1028.56 91.5647C1035.18 91.5647 1040.54 96.9283 1040.54 103.545V352.271C1040.54 358.887 1035.18 364.251 1028.56 364.251C1021.95 364.251 1016.58 358.887 1016.58 352.271V103.545ZM1575.08 226.196C1568.46 226.196 1563.1 231.56 1563.1 238.176V486.902C1563.1 493.519 1568.46 498.882 1575.08 498.882C1581.69 498.882 1587.06 493.519 1587.06 486.902V238.176C1587.06 231.56 1581.69 226.196 1575.08 226.196ZM1199.13 667.172C1199.13 660.555 1204.5 655.192 1211.11 655.192C1217.73 655.192 1223.09 660.555 1223.09 667.172V915.898C1223.09 922.514 1217.73 927.878 1211.11 927.878C1204.5 927.878 1199.13 922.514 1199.13 915.898V667.172ZM1392.52 512.574C1385.91 512.574 1380.54 517.937 1380.54 524.554V773.28C1380.54 779.896 1385.91 785.26 1392.52 785.26C1399.14 785.26 1404.5 779.896 1404.5 773.28V524.554C1404.5 517.937 1399.14 512.574 1392.52 512.574ZM879.669 723.078C879.669 716.462 885.033 711.098 891.649 711.098C898.265 711.098 903.629 716.462 903.629 723.078V971.804C903.629 978.421 898.265 983.784 891.649 983.784C885.033 983.784 879.669 978.421 879.669 971.804V723.078ZM566.479 480.627C559.863 480.627 554.5 485.991 554.5 492.607V643.212C554.5 649.828 559.863 655.192 566.479 655.192C573.096 655.192 578.459 649.828 578.459 643.212V492.607C578.459 485.991 573.096 480.627 566.479 480.627ZM463.224 791.535C463.224 784.919 468.587 779.555 475.204 779.555C481.82 779.555 487.184 784.918 487.184 791.535V942.14C487.184 948.756 481.82 954.12 475.204 954.12C468.587 954.12 463.224 948.756 463.224 942.14V791.535ZM382.787 700.83C376.171 700.83 370.807 706.193 370.807 712.81V863.414C370.807 870.031 376.171 875.394 382.787 875.394C389.404 875.394 394.767 870.031 394.767 863.414V712.81C394.767 706.193 389.404 700.83 382.787 700.83ZM93.5576 603.279C93.5576 596.662 98.9212 591.299 105.537 591.299C112.154 591.299 117.517 596.662 117.517 603.279V753.884C117.517 760.5 112.154 765.864 105.537 765.864C98.9212 765.864 93.5576 760.5 93.5576 753.884V603.279ZM11.9799 780.696C5.3636 780.696 0 786.059 0 792.676V943.281C0 949.897 5.3636 955.26 11.9799 955.26C18.5963 955.26 23.9599 949.897 23.9599 943.281V792.676C23.9599 786.059 18.5963 780.696 11.9799 780.696ZM600.137 164.015C600.137 157.398 605.501 152.035 612.117 152.035C618.734 152.035 624.097 157.398 624.097 164.015V314.62C624.097 321.236 618.734 326.599 612.117 326.599C605.501 326.599 600.137 321.236 600.137 314.62V164.015ZM981.784 152.035C975.167 152.035 969.804 157.398 969.804 164.015V346.566C969.804 353.182 975.167 358.546 981.784 358.546C988.4 358.546 993.764 353.182 993.764 346.566V164.015C993.764 157.398 988.4 152.035 981.784 152.035ZM235.035 712.81C235.035 706.193 240.398 700.83 247.015 700.83C253.631 700.83 258.995 706.193 258.995 712.81V895.361C258.995 901.977 253.631 907.341 247.015 907.341C240.398 907.341 235.035 901.977 235.035 895.361V712.81ZM751.313 35.6583C744.696 35.6583 739.333 41.0219 739.333 47.6383V198.243C739.333 204.859 744.696 210.223 751.313 210.223C757.929 210.223 763.293 204.859 763.293 198.243V47.6383C763.293 41.0219 757.929 35.6583 751.313 35.6583ZM510.003 55.6249C510.003 49.0086 515.366 43.645 521.983 43.645C528.599 43.645 533.963 49.0086 533.963 55.6249V206.23C533.963 212.846 528.599 218.21 521.983 218.21C515.366 218.21 510.003 212.846 510.003 206.23V55.6249ZM751.313 441.835C744.696 441.835 739.333 447.199 739.333 453.815V604.42C739.333 611.036 744.696 616.4 751.313 616.4C757.929 616.4 763.293 611.036 763.293 604.42V453.815C763.293 447.199 757.929 441.835 751.313 441.835ZM693.695 622.675C693.695 616.058 699.058 610.695 705.675 610.695C712.291 610.695 717.655 616.058 717.655 622.675V684.286C717.655 690.902 712.291 696.266 705.675 696.266C699.058 696.266 693.695 690.902 693.695 684.286V622.675ZM799.232 789.823C792.616 789.823 787.252 795.187 787.252 801.803V863.414C787.252 870.031 792.616 875.394 799.232 875.394C805.849 875.394 811.212 870.031 811.212 863.414V801.803C811.212 795.187 805.849 789.823 799.232 789.823ZM830.608 164.015C830.608 157.398 835.972 152.035 842.588 152.035C849.205 152.035 854.568 157.398 854.568 164.015V274.686C854.568 281.303 849.205 286.666 842.588 286.666C835.972 286.666 830.608 281.303 830.608 274.686V164.015ZM1029.7 -60.1811C1023.09 -60.1811 1017.72 -54.8175 1017.72 -48.2012V62.4706C1017.72 69.0869 1023.09 74.4505 1029.7 74.4505C1036.32 74.4505 1041.68 69.0869 1041.68 62.4706V-48.2012C1041.68 -54.8175 1036.32 -60.1811 1029.7 -60.1811ZM417.586 164.015C417.586 157.398 422.95 152.035 429.566 152.035C436.182 152.035 441.546 157.398 441.546 164.015V274.686C441.546 281.303 436.182 286.666 429.566 286.666C422.95 286.666 417.586 281.303 417.586 274.686V164.015ZM933.864 439.553C927.248 439.553 921.884 444.917 921.884 451.533V562.205C921.884 568.821 927.248 574.185 933.864 574.185C940.48 574.185 945.844 568.821 945.844 562.205V451.533C945.844 444.917 940.48 439.553 933.864 439.553ZM1291.55 636.366C1291.55 629.75 1296.91 624.386 1303.53 624.386C1310.15 624.386 1315.51 629.75 1315.51 636.366V747.038C1315.51 753.654 1310.15 759.018 1303.53 759.018C1296.91 759.018 1291.55 753.654 1291.55 747.038V636.366ZM1303.53 891.368C1296.91 891.368 1291.55 896.731 1291.55 903.347V1014.02C1291.55 1020.64 1296.91 1026 1303.53 1026C1310.15 1026 1315.51 1020.64 1315.51 1014.02V903.347C1315.51 896.731 1310.15 891.368 1303.53 891.368ZM1244.77 789.253C1244.77 782.637 1250.14 777.273 1256.75 777.273C1263.37 777.273 1268.73 782.637 1268.73 789.253V899.925C1268.73 906.541 1263.37 911.905 1256.75 911.905C1250.14 911.905 1244.77 906.541 1244.77 899.925V789.253ZM888.226 520.56C881.61 520.56 876.246 525.924 876.246 532.54V643.212C876.246 649.828 881.61 655.192 888.226 655.192C894.842 655.192 900.206 649.828 900.206 643.212V532.54C900.206 525.924 894.842 520.56 888.226 520.56ZM834.031 842.877C834.031 836.261 839.395 830.897 846.011 830.897C852.628 830.897 857.991 836.261 857.991 842.877V953.549C857.991 960.165 852.628 965.529 846.011 965.529C839.395 965.529 834.031 960.165 834.031 953.549V842.877ZM843.729 581.03C837.113 581.03 831.749 586.394 831.749 593.01V703.682C831.749 710.298 837.113 715.662 843.729 715.662C850.346 715.662 855.709 710.298 855.709 703.682V593.01C855.709 586.394 850.346 581.03 843.729 581.03ZM510.003 821.199C510.003 814.583 515.366 809.219 521.983 809.219C528.599 809.219 533.963 814.583 533.963 821.199V931.871C533.963 938.487 528.599 943.851 521.983 943.851C515.366 943.851 510.003 938.487 510.003 931.871V821.199ZM199.095 152.035C192.479 152.035 187.115 157.398 187.115 164.015V274.686C187.115 281.303 192.479 286.666 199.095 286.666C205.711 286.666 211.075 281.303 211.075 274.686V164.015C211.075 157.398 205.711 152.035 199.095 152.035ZM187.115 419.587C187.115 412.97 192.479 407.607 199.095 407.607C205.711 407.607 211.075 412.97 211.075 419.587V530.258C211.075 536.875 205.711 542.238 199.095 542.238C192.479 542.238 187.115 536.875 187.115 530.258V419.587ZM199.095 634.655C192.479 634.655 187.115 640.018 187.115 646.635V757.306C187.115 763.923 192.479 769.286 199.095 769.286C205.711 769.286 211.075 763.923 211.075 757.306V646.635C211.075 640.018 205.711 634.655 199.095 634.655ZM140.336 588.446C140.336 581.83 145.7 576.467 152.316 576.467C158.933 576.467 164.296 581.83 164.296 588.446V699.118C164.296 705.735 158.933 711.098 152.316 711.098C145.7 711.098 140.336 705.735 140.336 699.118V588.446ZM59.8997 576.467C53.2833 576.467 47.9197 581.83 47.9197 588.446V699.118C47.9197 705.735 53.2833 711.098 59.8997 711.098C66.516 711.098 71.8796 705.735 71.8796 699.118V588.446C71.8796 581.83 66.516 576.467 59.8997 576.467ZM0 636.366C0 629.75 5.3636 624.386 11.9799 624.386C18.5963 624.386 23.9599 629.75 23.9599 636.366V747.038C23.9599 753.654 18.5963 759.018 11.9799 759.018C5.3636 759.018 0 753.654 0 747.038V636.366ZM658.896 254.72C652.28 254.72 646.916 260.083 646.916 266.7V377.372C646.916 383.988 652.28 389.351 658.896 389.351C665.512 389.351 670.876 383.988 670.876 377.372V266.7C670.876 260.083 665.512 254.72 658.896 254.72ZM692.554 887.374C692.554 880.758 697.918 875.394 704.534 875.394C711.15 875.394 716.514 880.758 716.514 887.374V998.046C716.514 1004.66 711.15 1010.03 704.534 1010.03C697.918 1010.03 692.554 1004.66 692.554 998.046V887.374ZM658.896 407.607C652.28 407.607 646.916 412.97 646.916 419.587V530.258C646.916 536.875 652.28 542.238 658.896 542.238C665.512 542.238 670.876 536.875 670.876 530.258V419.587C670.876 412.97 665.512 407.607 658.896 407.607ZM600.137 531.399C600.137 524.783 605.501 519.419 612.117 519.419C618.734 519.419 624.097 524.783 624.097 531.399V603.279C624.097 609.895 618.734 615.259 612.117 615.259C605.501 615.259 600.137 609.895 600.137 603.279V531.399ZM520.842 547.943C514.225 547.943 508.862 553.307 508.862 559.923V631.802C508.862 638.419 514.225 643.782 520.842 643.782C527.458 643.782 532.822 638.419 532.822 631.802V559.923C532.822 553.307 527.458 547.943 520.842 547.943ZM554.5 86.4304C554.5 79.8141 559.863 74.4505 566.479 74.4505C573.096 74.4505 578.459 79.8141 578.459 86.4304V158.31C578.459 164.926 573.096 170.29 566.479 170.29C559.863 170.29 554.5 164.926 554.5 158.31V86.4304ZM430.707 411.029C424.091 411.029 418.727 416.393 418.727 423.009V494.889C418.727 501.505 424.091 506.869 430.707 506.869C437.323 506.869 442.687 501.505 442.687 494.889V423.009C442.687 416.393 437.323 411.029 430.707 411.029ZM278.391 531.399C278.391 524.783 283.754 519.419 290.371 519.419C296.987 519.419 302.351 524.783 302.351 531.399V603.279C302.351 609.895 296.987 615.259 290.371 615.259C283.754 615.259 278.391 609.895 278.391 603.279V531.399ZM247.015 925.596C240.398 925.596 235.035 930.959 235.035 937.576V1009.46C235.035 1016.07 240.398 1021.44 247.015 1021.44C253.631 1021.44 258.995 1016.07 258.995 1009.46V937.576C258.995 930.959 253.631 925.596 247.015 925.596ZM324.029 666.031C324.029 659.414 329.392 654.051 336.008 654.051C342.625 654.051 347.988 659.414 347.988 666.031V737.91C347.988 744.527 342.625 749.89 336.008 749.89C329.392 749.89 324.029 744.527 324.029 737.91V666.031ZM337.149 779.555C330.533 779.555 325.169 784.918 325.169 791.535V863.414C325.169 870.031 330.533 875.394 337.149 875.394C343.766 875.394 349.129 870.031 349.129 863.414V791.535C349.129 784.918 343.766 779.555 337.149 779.555ZM278.391 164.015C278.391 157.398 283.754 152.035 290.371 152.035C296.987 152.035 302.351 157.398 302.351 164.015V235.894C302.351 242.511 296.987 247.874 290.371 247.874C283.754 247.874 278.391 242.511 278.391 235.894V164.015ZM245.874 190.827C239.257 190.827 233.894 196.191 233.894 202.807V274.686C233.894 281.303 239.257 286.666 245.874 286.666C252.49 286.666 257.854 281.303 257.854 274.686V202.807C257.854 196.191 252.49 190.827 245.874 190.827ZM324.029 151.464C324.029 144.848 329.392 139.484 336.008 139.484C342.625 139.484 347.988 144.848 347.988 151.464V223.344C347.988 229.96 342.625 235.324 336.008 235.324C329.392 235.324 324.029 229.96 324.029 223.344V151.464ZM293.794 263.847C287.177 263.847 281.814 269.211 281.814 275.827V347.707C281.814 354.323 287.177 359.687 293.794 359.687C300.41 359.687 305.773 354.323 305.773 347.707V275.827C305.773 269.211 300.41 263.847 293.794 263.847ZM140.336 126.364C140.336 119.747 145.7 114.384 152.316 114.384C158.933 114.384 164.296 119.747 164.296 126.364V198.243C164.296 204.859 158.933 210.223 152.316 210.223C145.7 210.223 140.336 204.859 140.336 198.243V126.364ZM105.537 74.4505C98.9212 74.4505 93.5576 79.8141 93.5576 86.4304V158.31C93.5576 164.926 98.9212 170.29 105.537 170.29C112.154 170.29 117.517 164.926 117.517 158.31V86.4304C117.517 79.8141 112.154 74.4505 105.537 74.4505ZM47.9197 47.6383C47.9197 41.0219 53.2833 35.6583 59.8997 35.6583C66.516 35.6583 71.8796 41.0219 71.8796 47.6383V119.518C71.8796 126.134 66.516 131.498 59.8997 131.498C53.2833 131.498 47.9197 126.134 47.9197 119.518V47.6383ZM59.8997 226.196C53.2833 226.196 47.9197 231.56 47.9197 238.176V310.056C47.9197 316.672 53.2833 322.036 59.8997 322.036C66.516 322.036 71.8796 316.672 71.8796 310.056V238.176C71.8796 231.56 66.516 226.196 59.8997 226.196ZM94.6985 199.384C94.6985 192.768 100.062 187.404 106.678 187.404C113.295 187.404 118.658 192.768 118.658 199.384V310.056C118.658 316.672 113.295 322.036 106.678 322.036C100.062 322.036 94.6985 316.672 94.6985 310.056V199.384ZM612.117 35.6583C605.501 35.6583 600.137 41.0219 600.137 47.6383V119.518C600.137 126.134 605.501 131.498 612.117 131.498C618.734 131.498 624.097 126.134 624.097 119.518V47.6383C624.097 41.0219 618.734 35.6583 612.117 35.6583ZM648.057 126.364C648.057 119.747 653.421 114.384 660.037 114.384C666.653 114.384 672.017 119.747 672.017 126.364V198.243C672.017 204.859 666.653 210.223 660.037 210.223C653.421 210.223 648.057 204.859 648.057 198.243V126.364ZM981.784 411.029C975.167 411.029 969.804 416.393 969.804 423.009V494.889C969.804 501.505 975.167 506.869 981.784 506.869C988.4 506.869 993.764 501.505 993.764 494.889V423.009C993.764 416.393 988.4 411.029 981.784 411.029ZM692.554 126.364C692.554 119.747 697.918 114.384 704.534 114.384C711.15 114.384 716.514 119.747 716.514 126.364V198.243C716.514 204.859 711.15 210.223 704.534 210.223C697.918 210.223 692.554 204.859 692.554 198.243V126.364ZM474.063 296.935C467.447 296.935 462.083 302.298 462.083 308.915V347.707C462.083 354.323 467.447 359.687 474.063 359.687C480.679 359.687 486.043 354.323 486.043 347.707V308.915C486.043 302.298 480.679 296.935 474.063 296.935ZM418.727 345.425C418.727 338.809 424.091 333.445 430.707 333.445C437.323 333.445 442.687 338.809 442.687 345.425V384.217C442.687 390.834 437.323 396.197 430.707 396.197C424.091 396.197 418.727 390.834 418.727 384.217V345.425ZM382.787 364.251C376.171 364.251 370.807 369.614 370.807 376.231V415.023C370.807 421.639 376.171 427.003 382.787 427.003C389.404 427.003 394.767 421.639 394.767 415.023V376.231C394.767 369.614 389.404 364.251 382.787 364.251ZM416.445 533.681C416.445 527.065 421.809 521.701 428.425 521.701C435.041 521.701 440.405 527.065 440.405 533.681V572.473C440.405 579.09 435.041 584.453 428.425 584.453C421.809 584.453 416.445 579.09 416.445 572.473V533.681ZM291.512 369.955C284.895 369.955 279.532 375.319 279.532 381.935V420.727C279.532 427.344 284.895 432.707 291.512 432.707C298.128 432.707 303.492 427.344 303.492 420.727V381.935C303.492 375.319 298.128 369.955 291.512 369.955ZM279.532 660.326C279.532 653.71 284.895 648.346 291.512 648.346C298.128 648.346 303.492 653.71 303.492 660.326V699.118C303.492 705.735 298.128 711.098 291.512 711.098C284.895 711.098 279.532 705.735 279.532 699.118V660.326ZM336.008 910.764C329.392 910.764 324.029 916.127 324.029 922.744V961.536C324.029 968.152 329.392 973.516 336.008 973.516C342.625 973.516 347.988 968.152 347.988 961.536V922.744C347.988 916.127 342.625 910.764 336.008 910.764ZM231.612 419.587C231.612 412.97 236.976 407.607 243.592 407.607C250.208 407.607 255.572 412.97 255.572 419.587V458.379C255.572 464.995 250.208 470.359 243.592 470.359C236.976 470.359 231.612 464.995 231.612 458.379V419.587ZM152.316 741.904C145.7 741.904 140.336 747.267 140.336 753.884V792.676C140.336 799.292 145.7 804.656 152.316 804.656C158.933 804.656 164.296 799.292 164.296 792.676V753.884C164.296 747.267 158.933 741.904 152.316 741.904ZM325.169 456.097C325.169 449.48 330.533 444.117 337.149 444.117C343.766 444.117 349.129 449.48 349.129 456.097V494.889C349.129 501.505 343.766 506.869 337.149 506.869C330.533 506.869 325.169 501.505 325.169 494.889V456.097ZM337.149 561.634C330.533 561.634 325.169 566.998 325.169 573.614V612.406C325.169 619.023 330.533 624.386 337.149 624.386C343.766 624.386 349.129 619.023 349.129 612.406V573.614C349.129 566.998 343.766 561.634 337.149 561.634ZM235.035 1051.67C235.035 1045.05 240.398 1039.69 247.015 1039.69C253.631 1039.69 258.995 1045.05 258.995 1051.67V1090.46C258.995 1097.08 253.631 1102.44 247.015 1102.44C240.398 1102.44 235.035 1097.08 235.035 1090.46V1051.67ZM152.316 369.955C145.7 369.955 140.336 375.319 140.336 381.935V420.727C140.336 427.344 145.7 432.707 152.316 432.707C158.933 432.707 164.296 427.344 164.296 420.727V381.935C164.296 375.319 158.933 369.955 152.316 369.955ZM94.6985 381.935C94.6985 375.319 100.062 369.955 106.678 369.955C113.295 369.955 118.658 375.319 118.658 381.935V420.727C118.658 427.344 113.295 432.707 106.678 432.707C100.062 432.707 94.6985 427.344 94.6985 420.727V381.935ZM106.678 449.822C100.062 449.822 94.6985 455.185 94.6985 461.802V500.594C94.6985 507.21 100.062 512.574 106.678 512.574C113.295 512.574 118.658 507.21 118.658 500.594V461.802C118.658 455.185 113.295 449.822 106.678 449.822ZM94.6985 856.569C94.6985 849.952 100.062 844.589 106.678 844.589C113.295 844.589 118.658 849.952 118.658 856.569V895.361C118.658 901.977 113.295 907.341 106.678 907.341C100.062 907.341 94.6985 901.977 94.6985 895.361V856.569ZM61.0406 407.607C54.4243 407.607 49.0607 412.97 49.0607 419.587V458.379C49.0607 464.995 54.4243 470.359 61.0406 470.359C67.6569 470.359 73.0205 464.995 73.0205 458.379V419.587C73.0205 412.97 67.6569 407.607 61.0406 407.607ZM0 559.923C0 553.307 5.3636 547.943 11.9799 547.943C18.5963 547.943 23.9599 553.307 23.9599 559.923V598.715C23.9599 605.331 18.5963 610.695 11.9799 610.695C5.3636 610.695 0 605.331 0 598.715V559.923ZM475.204 592.44C468.587 592.44 463.224 597.803 463.224 604.42V643.212C463.224 649.828 468.587 655.192 475.204 655.192C481.82 655.192 487.184 649.828 487.184 643.212V604.42C487.184 597.803 481.82 592.44 475.204 592.44ZM554.5 785.83C554.5 779.214 559.863 773.85 566.479 773.85C573.096 773.85 578.459 779.214 578.459 785.83V824.622C578.459 831.239 573.096 836.602 566.479 836.602C559.863 836.602 554.5 831.239 554.5 824.622V785.83ZM610.976 881.099C604.36 881.099 598.996 886.463 598.996 893.079V931.871C598.996 938.487 604.36 943.851 610.976 943.851C617.593 943.851 622.956 938.487 622.956 931.871V893.079C622.956 886.463 617.593 881.099 610.976 881.099ZM692.554 800.662C692.554 794.046 697.918 788.682 704.534 788.682C711.15 788.682 716.514 794.046 716.514 800.662V839.455C716.514 846.071 711.15 851.434 704.534 851.434C697.918 851.434 692.554 846.071 692.554 839.455V800.662ZM750.172 703.112C743.555 703.112 738.192 708.475 738.192 715.091V753.884C738.192 760.5 743.555 765.864 750.172 765.864C756.788 765.864 762.152 760.5 762.152 753.884V715.091C762.152 708.475 756.788 703.112 750.172 703.112ZM784.971 715.091C784.971 708.475 790.334 703.112 796.951 703.112C803.567 703.112 808.93 708.475 808.93 715.091V753.884C808.93 760.5 803.567 765.864 796.951 765.864C790.334 765.864 784.971 760.5 784.971 753.884V715.091ZM474.063 973.516C467.447 973.516 462.083 978.879 462.083 985.496V1024.29C462.083 1030.9 467.447 1036.27 474.063 1036.27C480.679 1036.27 486.043 1030.9 486.043 1024.29V985.496C486.043 978.879 480.679 973.516 474.063 973.516ZM463.224 682.004C463.224 675.388 468.587 670.024 475.204 670.024C481.82 670.024 487.184 675.388 487.184 682.004V720.796C487.184 727.413 481.82 732.776 475.204 732.776C468.587 732.776 463.224 727.413 463.224 720.796V682.004ZM566.479 401.902C559.863 401.902 554.5 407.266 554.5 413.882V452.674C554.5 459.29 559.863 464.654 566.479 464.654C573.096 464.654 578.459 459.29 578.459 452.674V413.882C578.459 407.265 573.096 401.902 566.479 401.902ZM554.5 271.264C554.5 264.647 559.863 259.284 566.479 259.284C573.096 259.284 578.459 264.647 578.459 271.264V310.056C578.459 316.672 573.096 322.036 566.479 322.036C559.863 322.036 554.5 316.672 554.5 310.056V271.264ZM337.149 259.284C330.533 259.284 325.169 264.647 325.169 271.264V310.056C325.169 316.672 330.533 322.036 337.149 322.036C343.766 322.036 349.129 316.672 349.129 310.056V271.264C349.129 264.647 343.766 259.284 337.149 259.284ZM47.9197 159.451C47.9197 152.835 53.2833 147.471 59.8997 147.471C66.516 147.471 71.8796 152.835 71.8796 159.451V198.243C71.8796 204.859 66.516 210.223 59.8997 210.223C53.2833 210.223 47.9197 204.859 47.9197 198.243V159.451ZM381.646 35.6583C375.03 35.6583 369.666 41.0219 369.666 47.6383V86.4304C369.666 93.0467 375.03 98.4103 381.646 98.4103C388.263 98.4103 393.626 93.0467 393.626 86.4304V47.6383C393.626 41.0219 388.263 35.6583 381.646 35.6583ZM692.554 308.915C692.554 302.298 697.918 296.935 704.534 296.935C711.15 296.935 716.514 302.298 716.514 308.915V347.707C716.514 354.323 711.15 359.687 704.534 359.687C697.918 359.687 692.554 354.323 692.554 347.707V308.915ZM888.226 114.384C881.61 114.384 876.246 119.747 876.246 126.364V165.156C876.246 171.772 881.61 177.136 888.226 177.136C894.842 177.136 900.206 171.772 900.206 165.156V126.364C900.206 119.747 894.842 114.384 888.226 114.384ZM969.804 55.6249C969.804 49.0086 975.167 43.645 981.784 43.645C988.4 43.645 993.764 49.0086 993.764 55.6249V94.417C993.764 101.033 988.4 106.397 981.784 106.397C975.167 106.397 969.804 101.033 969.804 94.417V55.6249ZM888.226 291.23C881.61 291.23 876.246 296.594 876.246 303.21V342.002C876.246 348.619 881.61 353.982 888.226 353.982C894.842 353.982 900.206 348.619 900.206 342.002V303.21C900.206 296.594 894.842 291.23 888.226 291.23ZM921.884 344.284C921.884 337.668 927.248 332.304 933.864 332.304C940.48 332.304 945.844 337.668 945.844 344.284V383.076C945.844 389.693 940.48 395.056 933.864 395.056C927.248 395.056 921.884 389.693 921.884 383.076V344.284ZM1029.7 407.607C1023.09 407.607 1017.72 412.97 1017.72 419.587V458.379C1017.72 464.995 1023.09 470.359 1029.7 470.359C1036.32 470.359 1041.68 464.995 1041.68 458.379V419.587C1041.68 412.97 1036.32 407.607 1029.7 407.607ZM969.804 540.527C969.804 533.91 975.167 528.547 981.784 528.547C988.4 528.547 993.764 533.91 993.764 540.527V579.319C993.764 585.935 988.4 591.299 981.784 591.299C975.167 591.299 969.804 585.935 969.804 579.319V540.527ZM935.005 648.346C928.389 648.346 923.025 653.71 923.025 660.326V699.118C923.025 705.735 928.389 711.098 935.005 711.098C941.621 711.098 946.985 705.735 946.985 699.118V660.326C946.985 653.71 941.621 648.346 935.005 648.346ZM1058.8 747.038C1058.8 740.422 1064.16 735.058 1070.78 735.058C1077.39 735.058 1082.76 740.422 1082.76 747.038V785.83C1082.76 792.446 1077.39 797.81 1070.78 797.81C1064.16 797.81 1058.8 792.446 1058.8 785.83V747.038ZM1117.56 687.138C1110.94 687.138 1105.58 692.502 1105.58 699.118V737.91C1105.58 744.527 1110.94 749.89 1117.56 749.89C1124.17 749.89 1129.54 744.527 1129.54 737.91V699.118C1129.54 692.502 1124.17 687.138 1117.56 687.138ZM1196.85 586.165C1196.85 579.548 1202.22 574.185 1208.83 574.185C1215.45 574.185 1220.81 579.548 1220.81 586.165V624.957C1220.81 631.573 1215.45 636.937 1208.83 636.937C1202.22 636.937 1196.85 631.573 1196.85 624.957V586.165ZM1208.83 485.191C1202.22 485.191 1196.85 490.555 1196.85 497.171V535.963C1196.85 542.579 1202.22 547.943 1208.83 547.943C1215.45 547.943 1220.81 542.579 1220.81 535.963V497.171C1220.81 490.555 1215.45 485.191 1208.83 485.191ZM1241.35 497.171C1241.35 490.555 1246.71 485.191 1253.33 485.191C1259.95 485.191 1265.31 490.555 1265.31 497.171V535.963C1265.31 542.579 1259.95 547.943 1253.33 547.943C1246.71 547.943 1241.35 542.579 1241.35 535.963V497.171ZM1297.83 485.191C1291.21 485.191 1285.85 490.555 1285.85 497.171V535.963C1285.85 542.579 1291.21 547.943 1297.83 547.943C1304.44 547.943 1309.81 542.579 1309.81 535.963V497.171C1309.81 490.555 1304.44 485.191 1297.83 485.191ZM1517.46 477.775C1517.46 471.158 1522.82 465.795 1529.44 465.795C1536.05 465.795 1541.42 471.158 1541.42 477.775V516.567C1541.42 523.183 1536.05 528.547 1529.44 528.547C1522.82 528.547 1517.46 523.183 1517.46 516.567V477.775ZM1529.44 664.319C1522.82 664.319 1517.46 669.683 1517.46 676.299V715.091C1517.46 721.708 1522.82 727.071 1529.44 727.071C1536.05 727.071 1541.42 721.708 1541.42 715.091V676.299C1541.42 669.683 1536.05 664.319 1529.44 664.319ZM1561.95 668.313C1561.95 661.696 1567.32 656.333 1573.93 656.333C1580.55 656.333 1585.91 661.696 1585.91 668.313V707.105C1585.91 713.721 1580.55 719.085 1573.93 719.085C1567.32 719.085 1561.95 713.721 1561.95 707.105V668.313ZM1487.22 770.427C1480.61 770.427 1475.24 775.791 1475.24 782.407V821.199C1475.24 827.816 1480.61 833.179 1487.22 833.179C1493.84 833.179 1499.2 827.816 1499.2 821.199V782.407C1499.2 775.791 1493.84 770.427 1487.22 770.427ZM1611.02 829.186C1611.02 822.57 1616.38 817.206 1623 817.206C1629.61 817.206 1634.97 822.57 1634.97 829.186V867.978C1634.97 874.594 1629.61 879.958 1623 879.958C1616.38 879.958 1611.02 874.594 1611.02 867.978V829.186ZM1575.08 849.153C1568.46 849.153 1563.1 854.516 1563.1 861.132V899.925C1563.1 906.541 1568.46 911.905 1575.08 911.905C1581.69 911.905 1587.06 906.541 1587.06 899.925V861.132C1587.06 854.516 1581.69 849.153 1575.08 849.153ZM1471.82 1010.6C1471.82 1003.98 1477.18 998.616 1483.8 998.616C1490.42 998.616 1495.78 1003.98 1495.78 1010.6V1049.39C1495.78 1056 1490.42 1061.37 1483.8 1061.37C1477.18 1061.37 1471.82 1056 1471.82 1049.39V1010.6ZM1623 476.063C1616.38 476.063 1611.02 481.427 1611.02 488.043V526.835C1611.02 533.452 1616.38 538.815 1623 538.815C1629.61 538.815 1634.97 533.452 1634.97 526.835V488.043C1634.97 481.427 1629.61 476.063 1623 476.063ZM1611.02 238.176C1611.02 231.56 1616.38 226.196 1623 226.196C1629.61 226.196 1634.97 231.56 1634.97 238.176V276.968C1634.97 283.585 1629.61 288.948 1623 288.948C1616.38 288.948 1611.02 283.585 1611.02 276.968V238.176ZM1666.35 258.143C1659.73 258.143 1654.37 263.506 1654.37 270.123V308.915C1654.37 315.531 1659.73 320.895 1666.35 320.895C1672.97 320.895 1678.33 315.531 1678.33 308.915V270.123C1678.33 263.506 1672.97 258.143 1666.35 258.143ZM1703.43 128.645C1703.43 122.029 1708.8 116.665 1715.41 116.665C1722.03 116.665 1727.39 122.029 1727.39 128.645V167.438C1727.39 174.054 1722.03 179.417 1715.41 179.417C1708.8 179.417 1703.43 174.054 1703.43 167.438V128.645ZM1715.41 35.6583C1708.8 35.6583 1703.43 41.0219 1703.43 47.6383V86.4304C1703.43 93.0467 1708.8 98.4103 1715.41 98.4103C1722.03 98.4103 1727.39 93.0467 1727.39 86.4304V47.6383C1727.39 41.0219 1722.03 35.6583 1715.41 35.6583ZM1517.46 388.781C1517.46 382.165 1522.82 376.801 1529.44 376.801C1536.05 376.801 1541.42 382.165 1541.42 388.781V427.573C1541.42 434.189 1536.05 439.553 1529.44 439.553C1522.82 439.553 1517.46 434.189 1517.46 427.573V388.781ZM1297.83 290.089C1291.21 290.089 1285.85 295.453 1285.85 302.069V340.861C1285.85 347.478 1291.21 352.841 1297.83 352.841C1304.44 352.841 1309.81 347.478 1309.81 340.861V302.069C1309.81 295.453 1304.44 290.089 1297.83 290.089ZM1332.62 126.364C1332.62 119.747 1337.99 114.384 1344.6 114.384C1351.22 114.384 1356.58 119.747 1356.58 126.364V165.156C1356.58 171.772 1351.22 177.136 1344.6 177.136C1337.99 177.136 1332.62 171.772 1332.62 165.156V126.364ZM1256.75 170.29C1250.14 170.29 1244.77 175.654 1244.77 182.27V221.062C1244.77 227.678 1250.14 233.042 1256.75 233.042C1263.37 233.042 1268.73 227.678 1268.73 221.062V182.27C1268.73 175.654 1263.37 170.29 1256.75 170.29ZM1381.69 339.72C1381.69 333.104 1387.05 327.74 1393.67 327.74C1400.28 327.74 1405.64 333.104 1405.64 339.72V378.512C1405.64 385.129 1400.28 390.492 1393.67 390.492C1387.05 390.492 1381.69 385.129 1381.69 378.512V339.72ZM1395.95 921.032C1389.33 921.032 1383.97 926.396 1383.97 933.012V971.804C1383.97 978.421 1389.33 983.784 1395.95 983.784C1402.56 983.784 1407.93 978.421 1407.93 971.804V933.012C1407.93 926.396 1402.56 921.032 1395.95 921.032ZM1293.83 797.24C1293.83 790.623 1299.2 785.26 1305.81 785.26C1312.43 785.26 1317.79 790.623 1317.79 797.24V836.032C1317.79 842.648 1312.43 848.012 1305.81 848.012C1299.2 848.012 1293.83 842.648 1293.83 836.032V797.24ZM1346.89 411.029C1340.27 411.029 1334.91 416.393 1334.91 423.009V490.325C1334.91 496.942 1340.27 502.305 1346.89 502.305C1353.5 502.305 1358.87 496.942 1358.87 490.325V423.009C1358.87 416.393 1353.5 411.029 1346.89 411.029ZM1475.24 903.347C1475.24 896.731 1480.61 891.368 1487.22 891.368C1493.84 891.368 1499.2 896.731 1499.2 903.347V970.663C1499.2 977.28 1493.84 982.643 1487.22 982.643C1480.61 982.643 1475.24 977.28 1475.24 970.663V903.347ZM1297.83 173.713C1291.21 173.713 1285.85 179.076 1285.85 185.693V253.008C1285.85 259.625 1291.21 264.988 1297.83 264.988C1304.44 264.988 1309.81 259.625 1309.81 253.008V185.693C1309.81 179.076 1304.44 173.713 1297.83 173.713ZM1429.6 59.0477C1429.6 52.4314 1434.97 47.0678 1441.58 47.0678C1448.2 47.0678 1453.56 52.4314 1453.56 59.0477V126.364C1453.56 132.98 1448.2 138.343 1441.58 138.343C1434.97 138.343 1429.6 132.98 1429.6 126.364V59.0477ZM1441.58 220.492C1434.97 220.492 1429.6 225.855 1429.6 232.471V299.787C1429.6 306.404 1434.97 311.767 1441.58 311.767C1448.2 311.767 1453.56 306.404 1453.56 299.787V232.471C1453.56 225.855 1448.2 220.492 1441.58 220.492ZM1517.46 56.7658C1517.46 50.1495 1522.82 44.7859 1529.44 44.7859C1536.05 44.7859 1541.42 50.1495 1541.42 56.7658V124.082C1541.42 130.698 1536.05 136.062 1529.44 136.062C1522.82 136.062 1517.46 130.698 1517.46 124.082V56.7658ZM1715.41 374.519C1708.8 374.519 1703.43 379.883 1703.43 386.499V453.815C1703.43 460.431 1708.8 465.795 1715.41 465.795C1722.03 465.795 1727.39 460.431 1727.39 453.815V386.499C1727.39 379.883 1722.03 374.519 1715.41 374.519ZM1612.16 573.614C1612.16 566.998 1617.52 561.634 1624.14 561.634C1630.75 561.634 1636.12 566.998 1636.12 573.614V711.669C1636.12 718.285 1630.75 723.649 1624.14 723.649C1617.52 723.649 1612.16 718.285 1612.16 711.669V573.614ZM1666.35 631.232C1659.73 631.232 1654.37 636.596 1654.37 643.212V781.266C1654.37 787.883 1659.73 793.246 1666.35 793.246C1672.97 793.246 1678.33 787.883 1678.33 781.266V643.212C1678.33 636.596 1672.97 631.232 1666.35 631.232ZM1654.37 863.414C1654.37 856.798 1659.73 851.434 1666.35 851.434C1672.97 851.434 1678.33 856.798 1678.33 863.414V971.804C1678.33 978.421 1672.97 983.784 1666.35 983.784C1659.73 983.784 1654.37 978.421 1654.37 971.804V863.414ZM1666.35 44.7859C1659.73 44.7859 1654.37 50.1495 1654.37 56.7658V124.082C1654.37 130.698 1659.73 136.062 1666.35 136.062C1672.97 136.062 1678.33 130.698 1678.33 124.082V56.7658C1678.33 50.1495 1672.97 44.7859 1666.35 44.7859ZM1609.87 4.28236C1609.87 -2.33397 1615.24 -7.69757 1621.85 -7.69757C1628.47 -7.69757 1633.83 -2.33398 1633.83 4.28236V71.5981C1633.83 78.2145 1628.47 83.5781 1621.85 83.5781C1615.24 83.5781 1609.87 78.2145 1609.87 71.5981V4.28236ZM1484.94 276.398C1478.32 276.398 1472.96 281.761 1472.96 288.378V355.694C1472.96 362.31 1478.32 367.674 1484.94 367.674C1491.56 367.674 1496.92 362.31 1496.92 355.694V288.378C1496.92 281.761 1491.56 276.398 1484.94 276.398ZM1244.77 59.0477C1244.77 52.4314 1250.14 47.0678 1256.75 47.0678C1263.37 47.0678 1268.73 52.4314 1268.73 59.0477V126.364C1268.73 132.98 1263.37 138.343 1256.75 138.343C1250.14 138.343 1244.77 132.98 1244.77 126.364V59.0477ZM1387.96 190.827C1381.34 190.827 1375.98 196.191 1375.98 202.807V270.123C1375.98 276.739 1381.34 282.103 1387.96 282.103C1394.58 282.103 1399.94 276.739 1399.94 270.123V202.807C1399.94 196.191 1394.58 190.827 1387.96 190.827ZM1285.85 -3.70428C1285.85 -10.3206 1291.21 -15.6842 1297.83 -15.6842C1304.44 -15.6842 1309.81 -10.3206 1309.81 -3.70428V133.209C1309.81 139.826 1304.44 145.189 1297.83 145.189C1291.21 145.189 1285.85 139.826 1285.85 133.209V-3.70428ZM1393.67 -15.6842C1387.05 -15.6842 1381.69 -10.3206 1381.69 -3.70428V133.209C1381.69 139.826 1387.05 145.189 1393.67 145.189C1400.28 145.189 1405.64 139.826 1405.64 133.209V-3.70428C1405.64 -10.3206 1400.28 -15.6842 1393.67 -15.6842ZM1472.96 102.404C1472.96 95.7873 1478.32 90.4237 1484.94 90.4237C1491.56 90.4237 1496.92 95.7873 1496.92 102.404V239.317C1496.92 245.933 1491.56 251.297 1484.94 251.297C1478.32 251.297 1472.96 245.933 1472.96 239.317V102.404ZM1575.08 42.504C1568.46 42.504 1563.1 47.8676 1563.1 54.4839V191.397C1563.1 198.014 1568.46 203.377 1575.08 203.377C1581.69 203.377 1587.06 198.014 1587.06 191.397V54.484C1587.06 47.8676 1581.69 42.504 1575.08 42.504ZM1382.83 821.199C1382.83 814.583 1388.19 809.219 1394.81 809.219C1401.42 809.219 1406.79 814.583 1406.79 821.199V888.515C1406.79 895.131 1401.42 900.495 1394.81 900.495C1388.19 900.495 1382.83 895.131 1382.83 888.515V821.199ZM1208.83 275.257C1202.22 275.257 1196.85 280.621 1196.85 287.237V326.029C1196.85 332.645 1202.22 338.009 1208.83 338.009C1215.45 338.009 1220.81 332.645 1220.81 326.029V287.237C1220.81 280.621 1215.45 275.257 1208.83 275.257ZM1151.21 119.518C1151.21 112.902 1156.58 107.538 1163.19 107.538C1169.81 107.538 1175.17 112.902 1175.17 119.518V158.31C1175.17 164.926 1169.81 170.29 1163.19 170.29C1156.58 170.29 1151.21 164.926 1151.21 158.31V119.518ZM1157.49 552.507C1150.87 552.507 1145.51 557.87 1145.51 564.487V603.279C1145.51 609.895 1150.87 615.259 1157.49 615.259C1164.11 615.259 1169.47 609.895 1169.47 603.279V564.487C1169.47 557.87 1164.11 552.507 1157.49 552.507ZM1105.58 785.83C1105.58 779.214 1110.94 773.85 1117.56 773.85C1124.17 773.85 1129.54 779.214 1129.54 785.83V824.622C1129.54 831.239 1124.17 836.602 1117.56 836.602C1110.94 836.602 1105.58 831.239 1105.58 824.622V785.83ZM1070.78 881.099C1064.16 881.099 1058.8 886.463 1058.8 893.079V931.871C1058.8 938.487 1064.16 943.851 1070.78 943.851C1077.39 943.851 1082.76 938.487 1082.76 931.871V893.079C1082.76 886.463 1077.39 881.099 1070.78 881.099ZM1102.15 893.079C1102.15 886.463 1107.52 881.099 1114.13 881.099C1120.75 881.099 1126.11 886.463 1126.11 893.079V931.871C1126.11 938.487 1120.75 943.851 1114.13 943.851C1107.52 943.851 1102.15 938.487 1102.15 931.871V893.079ZM1163.19 895.931C1156.58 895.931 1151.21 901.295 1151.21 907.911V946.703C1151.21 953.32 1156.58 958.683 1163.19 958.683C1169.81 958.683 1175.17 953.32 1175.17 946.703V907.911C1175.17 901.295 1169.81 895.931 1163.19 895.931ZM923.025 747.038C923.025 740.422 928.389 735.058 935.005 735.058C941.621 735.058 946.985 740.422 946.985 747.038V785.83C946.985 792.446 941.621 797.81 935.005 797.81C928.389 797.81 923.025 792.446 923.025 785.83V747.038ZM846.011 741.904C839.395 741.904 834.031 747.267 834.031 753.884V792.676C834.031 799.292 839.395 804.656 846.011 804.656C852.628 804.656 857.991 799.292 857.991 792.676V753.884C857.991 747.267 852.628 741.904 846.011 741.904ZM738.192 307.774C738.192 301.158 743.555 295.794 750.172 295.794C756.788 295.794 762.152 301.158 762.152 307.774V346.566C762.152 353.182 756.788 358.546 750.172 358.546C743.555 358.546 738.192 353.182 738.192 346.566V307.774ZM381.646 187.404C375.03 187.404 369.666 192.768 369.666 199.384V310.056C369.666 316.672 375.03 322.036 381.646 322.036C388.263 322.036 393.626 316.672 393.626 310.056V199.384C393.626 192.768 388.263 187.404 381.646 187.404Z" fill="white"/>
</g>
</g>
</svg>
