<svg viewBox="0 0 36 28" fill="none" xmlns="http://www.w3.org/2000/svg">
<path fill-rule="evenodd" clip-rule="evenodd" d="M22.632 0.102029C22.8813 0.184973 23.1118 0.316218 23.3103 0.488268C23.5089 0.660317 23.6716 0.8698 23.7892 1.10475C23.9067 1.33969 23.9768 1.5955 23.9955 1.85756C24.0142 2.11961 23.9811 2.38278 23.898 2.63203L15.898 26.632C15.7304 27.1354 15.3697 27.5516 14.8952 27.789C14.4207 28.0264 13.8714 28.0656 13.368 27.898C12.8646 27.7304 12.4484 27.3697 12.211 26.8952C11.9736 26.4208 11.9344 25.8714 12.102 25.368L20.102 1.36803C20.1849 1.11874 20.3162 0.888245 20.4882 0.689698C20.6603 0.49115 20.8698 0.328446 21.1047 0.210879C21.3397 0.093313 21.5955 0.023188 21.8575 0.00451104C22.1196 -0.0141659 22.3828 0.0189713 22.632 0.102029ZM9.414 6.58603C9.78894 6.96108 9.99957 7.4697 9.99957 8.00003C9.99957 8.53036 9.78894 9.03897 9.414 9.41403L4.828 14L9.414 18.586C9.60502 18.7705 9.75738 18.9912 9.8622 19.2352C9.96702 19.4792 10.0222 19.7417 10.0245 20.0072C10.0268 20.2728 9.97621 20.5361 9.87564 20.7819C9.77508 21.0277 9.62658 21.251 9.43879 21.4388C9.25101 21.6266 9.0277 21.7751 8.78191 21.8757C8.53612 21.9762 8.27276 22.0268 8.0072 22.0245C7.74164 22.0222 7.4792 21.9671 7.23519 21.8622C6.99118 21.7574 6.77049 21.605 6.586 21.414L0.586 15.414C0.211058 15.039 0.000427246 14.5304 0.000427246 14C0.000427246 13.4697 0.211058 12.9611 0.586 12.586L6.586 6.58603C6.96106 6.21109 7.46967 6.00046 8 6.00046C8.53033 6.00046 9.03894 6.21109 9.414 6.58603ZM26.586 6.58603C26.9611 6.21109 27.4697 6.00046 28 6.00046C28.5303 6.00046 29.0389 6.21109 29.414 6.58603L35.414 12.586C35.7889 12.9611 35.9996 13.4697 35.9996 14C35.9996 14.5304 35.7889 15.039 35.414 15.414L29.414 21.414C29.2295 21.605 29.0088 21.7574 28.7648 21.8622C28.5208 21.9671 28.2584 22.0222 27.9928 22.0245C27.7272 22.0268 27.4639 21.9762 27.2181 21.8757C26.9723 21.7751 26.749 21.6266 26.5612 21.4388C26.3734 21.251 26.2249 21.0277 26.1244 20.7819C26.0238 20.5361 25.9732 20.2728 25.9755 20.0072C25.9778 19.7417 26.033 19.4792 26.1378 19.2352C26.2426 18.9912 26.395 18.7705 26.586 18.586L31.172 14L26.586 9.41403C26.2111 9.03897 26.0004 8.53036 26.0004 8.00003C26.0004 7.4697 26.2111 6.96108 26.586 6.58603Z" fill="currentColor"/>
</svg>
