<svg viewBox="0 0 28 28" fill="none" xmlns="http://www.w3.org/2000/svg">
<path fill-rule="evenodd" clip-rule="evenodd" d="M16.6071 2.0475C15.9421 -0.6825 12.0571 -0.6825 11.3921 2.0475C11.2928 2.45773 11.098 2.83872 10.8237 3.15947C10.5494 3.48022 10.2032 3.73167 9.81329 3.89335C9.42342 4.05503 9.00087 4.12238 8.58005 4.08991C8.15923 4.05744 7.75202 3.92607 7.39156 3.7065C4.99056 2.2435 2.24306 4.991 3.70606 7.392C4.65106 8.9425 3.81281 10.9655 2.04881 11.3942C-0.682938 12.0575 -0.682938 15.9443 2.04881 16.6058C2.45915 16.7052 2.84021 16.9001 3.16096 17.1746C3.48171 17.4492 3.73308 17.7956 3.89461 18.1857C4.05613 18.5758 4.12325 18.9985 4.09048 19.4194C4.05772 19.8404 3.926 20.2476 3.70606 20.608C2.24306 23.009 4.99056 25.7565 7.39156 24.2935C7.75196 24.0736 8.1592 23.9418 8.58014 23.9091C9.00107 23.8763 9.42379 23.9434 9.81388 24.105C10.204 24.2665 10.5504 24.5179 10.8249 24.8386C11.0995 25.1594 11.2944 25.5404 11.3938 25.9508C12.0571 28.6825 15.9438 28.6825 16.6053 25.9508C16.7051 25.5406 16.9002 25.1598 17.1748 24.8393C17.4494 24.5188 17.7957 24.2676 18.1857 24.1061C18.5757 23.9446 18.9982 23.8774 19.4191 23.91C19.8399 23.9426 20.2471 24.0739 20.6076 24.2935C23.0086 25.7565 25.7561 23.009 24.2931 20.608C24.0735 20.2475 23.9421 19.8403 23.9095 19.4195C23.877 18.9987 23.9442 18.5761 24.1056 18.1862C24.2671 17.7962 24.5183 17.4498 24.8389 17.1752C25.1594 16.9006 25.5402 16.7055 25.9503 16.6058C28.6821 15.9425 28.6821 12.0557 25.9503 11.3942C25.54 11.2948 25.1589 11.0999 24.8382 10.8254C24.5174 10.5508 24.266 10.2044 24.1045 9.81431C23.943 9.42423 23.8759 9.00151 23.9086 8.58057C23.9414 8.15964 24.0731 7.7524 24.2931 7.392C25.7561 4.991 23.0086 2.2435 20.6076 3.7065C20.2472 3.92644 19.8399 4.05816 19.419 4.09092C18.9981 4.12369 18.5753 4.05657 18.1853 3.89504C17.7952 3.73352 17.4487 3.48214 17.1742 3.16139C16.8996 2.84064 16.7047 2.45959 16.6053 2.04925L16.6071 2.0475ZM13.9996 19.25C15.392 19.25 16.7273 18.6969 17.7119 17.7123C18.6964 16.7277 19.2496 15.3924 19.2496 14C19.2496 12.6076 18.6964 11.2723 17.7119 10.2877C16.7273 9.30312 15.392 8.75 13.9996 8.75C12.6072 8.75 11.2718 9.30312 10.2873 10.2877C9.30269 11.2723 8.74956 12.6076 8.74956 14C8.74956 15.3924 9.30269 16.7277 10.2873 17.7123C11.2718 18.6969 12.6072 19.25 13.9996 19.25Z" fill="currentColor"/>
</svg>
