<svg viewBox="0 0 25 28" fill="none" xmlns="http://www.w3.org/2000/svg">
<path d="M14.0625 1.75C14.0625 1.28587 13.8979 0.840752 13.6049 0.512563C13.3118 0.184374 12.9144 0 12.5 0C12.0856 0 11.6882 0.184374 11.3951 0.512563C11.1021 0.840752 10.9375 1.28587 10.9375 1.75V3.5C10.9375 3.96413 11.1021 4.40925 11.3951 4.73744C11.6882 5.06563 12.0856 5.25 12.5 5.25C12.9144 5.25 13.3118 5.06563 13.6049 4.73744C13.8979 4.40925 14.0625 3.96413 14.0625 3.5V1.75ZM21.3391 6.57475C21.6237 6.2447 21.7812 5.80264 21.7776 5.3438C21.7741 4.88495 21.6097 4.44603 21.32 4.12157C21.0303 3.7971 20.6384 3.61306 20.2288 3.60907C19.8191 3.60508 19.4244 3.78147 19.1297 4.10025L18.025 5.3375C17.7404 5.66755 17.5829 6.10961 17.5864 6.56845C17.59 7.0273 17.7543 7.46622 18.044 7.79068C18.3337 8.11515 18.7256 8.29919 19.1353 8.30318C19.545 8.30717 19.9397 8.13078 20.2344 7.812L21.3391 6.57475ZM25 14C25 14.4641 24.8354 14.9092 24.5424 15.2374C24.2493 15.5656 23.8519 15.75 23.4375 15.75H21.875C21.4606 15.75 21.0632 15.5656 20.7701 15.2374C20.4771 14.9092 20.3125 14.4641 20.3125 14C20.3125 13.5359 20.4771 13.0908 20.7701 12.7626C21.0632 12.4344 21.4606 12.25 21.875 12.25H23.4375C23.8519 12.25 24.2493 12.4344 24.5424 12.7626C24.8354 13.0908 25 13.5359 25 14ZM4.76563 7.812C4.90976 7.97914 5.08217 8.11246 5.27281 8.20418C5.46344 8.29589 5.66847 8.34417 5.87594 8.34619C6.0834 8.34821 6.28915 8.30393 6.48118 8.21594C6.6732 8.12795 6.84766 7.998 6.99437 7.83369C7.14107 7.66938 7.2571 7.47399 7.33566 7.25892C7.41422 7.04385 7.45376 6.81341 7.45195 6.58105C7.45015 6.34868 7.40705 6.11905 7.32516 5.90554C7.24327 5.69204 7.12424 5.49893 6.975 5.3375L5.87031 4.10025C5.57562 3.78147 5.18093 3.60508 4.77125 3.60907C4.36157 3.61306 3.96967 3.7971 3.67997 4.12157C3.39027 4.44603 3.22594 4.88495 3.22238 5.3438C3.21882 5.80264 3.37632 6.2447 3.66094 6.57475L4.76563 7.812ZM4.6875 14C4.6875 14.4641 4.52288 14.9092 4.22985 15.2374C3.93683 15.5656 3.5394 15.75 3.125 15.75H1.5625C1.1481 15.75 0.750671 15.5656 0.457646 15.2374C0.16462 14.9092 0 14.4641 0 14C0 13.5359 0.16462 13.0908 0.457646 12.7626C0.750671 12.4344 1.1481 12.25 1.5625 12.25H3.125C3.5394 12.25 3.93683 12.4344 4.22985 12.7626C4.52288 13.0908 4.6875 13.5359 4.6875 14ZM9.375 24.5V22.75H15.625V24.5C15.625 25.4283 15.2958 26.3185 14.7097 26.9749C14.1237 27.6313 13.3288 28 12.5 28C11.6712 28 10.8763 27.6313 10.2903 26.9749C9.70424 26.3185 9.375 25.4283 9.375 24.5ZM15.625 21C15.6484 20.405 15.95 19.8695 16.3703 19.4967C17.3901 18.5959 18.134 17.3617 18.4987 15.9655C18.8633 14.5694 18.8305 13.0807 18.4048 11.7063C17.9792 10.332 17.1818 9.14033 16.1236 8.29695C15.0654 7.45358 13.7988 7.00039 12.5 7.00039C11.2012 7.00039 9.93465 7.45358 8.87641 8.29695C7.81817 9.14033 7.02082 10.332 6.59517 11.7063C6.16952 13.0807 6.13672 14.5694 6.50134 15.9655C6.86596 17.3617 7.60987 18.5959 8.62969 19.4967C9.05156 19.8695 9.35156 20.405 9.37344 21H15.6266H15.625Z" fill="currentColor"/>
</svg>
