<svg  viewBox="0 0 27 25" fill="none" xmlns="http://www.w3.org/2000/svg">
<path d="M11.3445 1.20881C11.8695 -0.402938 14.1497 -0.402938 14.673 1.20881L16.5455 6.96981C16.6599 7.32067 16.8823 7.62638 17.1809 7.84325C17.4795 8.06011 17.839 8.17704 18.208 8.17731H24.2665C25.9622 8.17731 26.6657 10.3473 25.2955 11.3448L20.3955 14.9043C20.0963 15.1214 19.8735 15.4276 19.7591 15.7791C19.6446 16.1305 19.6444 16.5092 19.7585 16.8608L21.631 22.6218C22.156 24.2336 20.3097 25.5758 18.936 24.5783L14.036 21.0188C13.7371 20.8018 13.3772 20.685 13.0079 20.685C12.6385 20.685 12.2786 20.8018 11.9797 21.0188L7.07974 24.5783C5.70774 25.5758 3.86324 24.2336 4.38649 22.6218L6.25899 16.8608C6.37305 16.5092 6.37284 16.1305 6.25841 15.7791C6.14398 15.4276 5.92119 15.1214 5.62199 14.9043L0.723744 11.3466C-0.646506 10.3491 0.0587439 8.17906 1.75274 8.17906H7.80949C8.17883 8.17916 8.53872 8.0624 8.83766 7.84551C9.1366 7.62861 9.35925 7.3227 9.47374 6.97156L11.3462 1.21056L11.3445 1.20881Z" fill="currentColor"/>
</svg>
